<svg id="visual" viewBox="0 0 900 600" width="900" height="600" xmlns="http://www.w3.org/2000/svg" xmlns:xlink="http://www.w3.org/1999/xlink" version="1.1"><g stroke-width="1" stroke-linejoin="bevel"><path d="M526 282L577 282L564 236Z" fill="#fbf0f1" stroke="#fbf0f1"></path><path d="M564 236L465 194L526 282Z" fill="#f6dadc" stroke="#f6dadc"></path><path d="M529 417L634 365L577 282Z" fill="#f8e4e5" stroke="#f8e4e5"></path><path d="M731 216L603 125L564 236Z" fill="#faedee" stroke="#faedee"></path><path d="M731 216L564 236L577 282Z" fill="#fbf0f1" stroke="#fbf0f1"></path><path d="M564 236L510 114L465 194Z" fill="#f3d0d2" stroke="#f3d0d2"></path><path d="M404 400L529 417L526 282Z" fill="#f9eaeb" stroke="#f9eaeb"></path><path d="M526 282L529 417L577 282Z" fill="#f4d5d7" stroke="#f4d5d7"></path><path d="M603 125L510 114L564 236Z" fill="#faedee" stroke="#faedee"></path><path d="M400 119L390 181L465 194Z" fill="#f9e9ea" stroke="#f9e9ea"></path><path d="M465 194L362 320L526 282Z" fill="#f9eaeb" stroke="#f9eaeb"></path><path d="M634 365L735 281L577 282Z" fill="#fbf0f1" stroke="#fbf0f1"></path><path d="M735 281L731 216L577 282Z" fill="#f3d0d2" stroke="#f3d0d2"></path><path d="M665 463L702 386L634 365Z" fill="#f4d5d7" stroke="#f4d5d7"></path><path d="M634 365L702 386L735 281Z" fill="#f8e4e5" stroke="#f8e4e5"></path><path d="M390 181L362 320L465 194Z" fill="#fbeff0" stroke="#fbeff0"></path><path d="M362 320L404 400L526 282Z" fill="#fbf0f1" stroke="#fbf0f1"></path><path d="M510 114L400 119L465 194Z" fill="#f6dadc" stroke="#f6dadc"></path><path d="M390 181L305 300L362 320Z" fill="#faedee" stroke="#faedee"></path><path d="M731 216L714 110L603 125Z" fill="#f9e9ea" stroke="#f9e9ea"></path><path d="M603 125L498 0L510 114Z" fill="#f3d0d2" stroke="#f3d0d2"></path><path d="M529 417L665 463L634 365Z" fill="#f3d0d2" stroke="#f3d0d2"></path><path d="M566 539L665 463L529 417Z" fill="#fbeff0" stroke="#fbeff0"></path><path d="M735 281L787 267L731 216Z" fill="#f3d0d2" stroke="#f3d0d2"></path><path d="M731 216L801 96L714 110Z" fill="#f9e9ea" stroke="#f9e9ea"></path><path d="M787 418L787 267L735 281Z" fill="#f7dfe0" stroke="#f7dfe0"></path><path d="M787 418L735 281L702 386Z" fill="#f6dadc" stroke="#f6dadc"></path><path d="M299 191L305 300L390 181Z" fill="#f7dfe0" stroke="#f7dfe0"></path><path d="M362 320L271 408L404 400Z" fill="#f4d5d7" stroke="#f4d5d7"></path><path d="M419 506L464 509L404 400Z" fill="#f6dadc" stroke="#f6dadc"></path><path d="M404 400L464 509L529 417Z" fill="#f8e4e5" stroke="#f8e4e5"></path><path d="M289 104L299 191L390 181Z" fill="#faeced" stroke="#faeced"></path><path d="M510 114L498 0L400 119Z" fill="#f8e4e5" stroke="#f8e4e5"></path><path d="M400 119L289 104L390 181Z" fill="#f3d0d2" stroke="#f3d0d2"></path><path d="M633 0L498 0L603 125Z" fill="#f6dadc" stroke="#f6dadc"></path><path d="M464 509L566 539L529 417Z" fill="#f9e9ea" stroke="#f9e9ea"></path><path d="M271 408L419 506L404 400Z" fill="#f3d0d2" stroke="#f3d0d2"></path><path d="M464 509L481 600L566 539Z" fill="#f9eaeb" stroke="#f9eaeb"></path><path d="M714 110L633 0L603 125Z" fill="#f9e9ea" stroke="#f9e9ea"></path><path d="M787 267L823 206L731 216Z" fill="#f8e4e5" stroke="#f8e4e5"></path><path d="M714 110L722 0L633 0Z" fill="#f9eaeb" stroke="#f9eaeb"></path><path d="M832 486L787 418L665 463Z" fill="#f9eaeb" stroke="#f9eaeb"></path><path d="M665 463L787 418L702 386Z" fill="#f7dfe0" stroke="#f7dfe0"></path><path d="M787 267L900 331L823 206Z" fill="#fbf0f1" stroke="#fbf0f1"></path><path d="M823 206L801 96L731 216Z" fill="#faeced" stroke="#faeced"></path><path d="M319 0L289 104L400 119Z" fill="#f3d0d2" stroke="#f3d0d2"></path><path d="M201 369L271 408L305 300Z" fill="#f8e4e5" stroke="#f8e4e5"></path><path d="M498 0L392 0L400 119Z" fill="#fbeff0" stroke="#fbeff0"></path><path d="M801 96L722 0L714 110Z" fill="#f9eaeb" stroke="#f9eaeb"></path><path d="M215 276L305 300L299 191Z" fill="#f8e4e5" stroke="#f8e4e5"></path><path d="M305 300L271 408L362 320Z" fill="#f9eaeb" stroke="#f9eaeb"></path><path d="M289 104L232 162L299 191Z" fill="#f4d5d7" stroke="#f4d5d7"></path><path d="M232 162L215 276L299 191Z" fill="#f3d0d2" stroke="#f3d0d2"></path><path d="M381 600L481 600L419 506Z" fill="#f9e9ea" stroke="#f9e9ea"></path><path d="M419 506L481 600L464 509Z" fill="#f7dfe0" stroke="#f7dfe0"></path><path d="M566 539L627 600L665 463Z" fill="#f8e4e5" stroke="#f8e4e5"></path><path d="M481 600L627 600L566 539Z" fill="#f8e4e5" stroke="#f8e4e5"></path><path d="M392 0L319 0L400 119Z" fill="#f8e4e5" stroke="#f8e4e5"></path><path d="M289 104L172 71L232 162Z" fill="#faedee" stroke="#faedee"></path><path d="M900 61L788 0L801 96Z" fill="#f7dfe0" stroke="#f7dfe0"></path><path d="M801 96L788 0L722 0Z" fill="#f9eaeb" stroke="#f9eaeb"></path><path d="M787 418L900 331L787 267Z" fill="#fbf0f1" stroke="#fbf0f1"></path><path d="M823 206L900 160L801 96Z" fill="#f3d0d2" stroke="#f3d0d2"></path><path d="M900 368L900 331L787 418Z" fill="#f9e9ea" stroke="#f9e9ea"></path><path d="M724 600L832 486L665 463Z" fill="#f8e4e5" stroke="#f8e4e5"></path><path d="M832 486L900 368L787 418Z" fill="#faedee" stroke="#faedee"></path><path d="M900 331L900 160L823 206Z" fill="#fbeff0" stroke="#fbeff0"></path><path d="M215 276L201 369L305 300Z" fill="#f7dfe0" stroke="#f7dfe0"></path><path d="M265 518L381 600L419 506Z" fill="#f9e9ea" stroke="#f9e9ea"></path><path d="M113 374L201 369L215 276Z" fill="#faeced" stroke="#faeced"></path><path d="M265 518L419 506L271 408Z" fill="#f9e9ea" stroke="#f9e9ea"></path><path d="M627 600L724 600L665 463Z" fill="#f6dadc" stroke="#f6dadc"></path><path d="M178 533L265 518L271 408Z" fill="#faeced" stroke="#faeced"></path><path d="M900 160L900 61L801 96Z" fill="#f6dadc" stroke="#f6dadc"></path><path d="M724 600L778 600L832 486Z" fill="#f6dadc" stroke="#f6dadc"></path><path d="M832 486L900 512L900 368Z" fill="#f9e9ea" stroke="#f9e9ea"></path><path d="M181 600L292 600L265 518Z" fill="#f3d0d2" stroke="#f3d0d2"></path><path d="M265 518L292 600L381 600Z" fill="#f8e4e5" stroke="#f8e4e5"></path><path d="M211 0L172 71L289 104Z" fill="#faedee" stroke="#faedee"></path><path d="M232 162L72 213L215 276Z" fill="#f6dadc" stroke="#f6dadc"></path><path d="M900 600L900 512L832 486Z" fill="#fbeff0" stroke="#fbeff0"></path><path d="M319 0L211 0L289 104Z" fill="#f7dfe0" stroke="#f7dfe0"></path><path d="M900 61L900 0L788 0Z" fill="#f9eaeb" stroke="#f9eaeb"></path><path d="M60 323L113 374L215 276Z" fill="#faeced" stroke="#faeced"></path><path d="M201 369L178 533L271 408Z" fill="#f3d0d2" stroke="#f3d0d2"></path><path d="M113 374L178 533L201 369Z" fill="#f8e4e5" stroke="#f8e4e5"></path><path d="M100 0L99 127L172 71Z" fill="#f6dadc" stroke="#f6dadc"></path><path d="M172 71L99 127L232 162Z" fill="#f3d0d2" stroke="#f3d0d2"></path><path d="M99 127L72 213L232 162Z" fill="#f9eaeb" stroke="#f9eaeb"></path><path d="M778 600L900 600L832 486Z" fill="#fbf0f1" stroke="#fbf0f1"></path><path d="M72 213L60 323L215 276Z" fill="#f4d5d7" stroke="#f4d5d7"></path><path d="M113 374L103 513L178 533Z" fill="#f9eaeb" stroke="#f9eaeb"></path><path d="M178 533L181 600L265 518Z" fill="#f8e4e5" stroke="#f8e4e5"></path><path d="M118 600L181 600L178 533Z" fill="#f8e4e5" stroke="#f8e4e5"></path><path d="M0 436L103 513L113 374Z" fill="#f3d0d2" stroke="#f3d0d2"></path><path d="M0 85L0 223L72 213Z" fill="#fbeff0" stroke="#fbeff0"></path><path d="M211 0L100 0L172 71Z" fill="#faeced" stroke="#faeced"></path><path d="M0 600L118 600L103 513Z" fill="#f9e9ea" stroke="#f9e9ea"></path><path d="M103 513L118 600L178 533Z" fill="#fbf0f1" stroke="#fbf0f1"></path><path d="M0 85L72 213L99 127Z" fill="#f9eaeb" stroke="#f9eaeb"></path><path d="M72 213L0 223L60 323Z" fill="#f3d0d2" stroke="#f3d0d2"></path><path d="M60 323L0 436L113 374Z" fill="#faeced" stroke="#faeced"></path><path d="M0 223L0 334L60 323Z" fill="#f8e4e5" stroke="#f8e4e5"></path><path d="M0 334L0 436L60 323Z" fill="#faeced" stroke="#faeced"></path><path d="M100 0L0 85L99 127Z" fill="#f7dfe0" stroke="#f7dfe0"></path><path d="M0 436L0 469L103 513Z" fill="#f9e9ea" stroke="#f9e9ea"></path><path d="M100 0L0 0L0 85Z" fill="#faedee" stroke="#faedee"></path><path d="M0 469L0 600L103 513Z" fill="#f9e9ea" stroke="#f9e9ea"></path></g></svg>